<?xml version="1.0" standalone="no"?>
<!DOCTYPE svg PUBLIC "-//W3C//DTD SVG 20010904//EN"
 "http://www.w3.org/TR/2001/REC-SVG-20010904/DTD/svg10.dtd">
<svg version="1.0" xmlns="http://www.w3.org/2000/svg"
 width="2553.000000pt" height="2553.000000pt" viewBox="0 0 2553.000000 2553.000000"
 preserveAspectRatio="xMidYMid meet">

<g transform="translate(0.000000,2553.000000) scale(0.100000,-0.100000)"
fill="#000000" stroke="none">
<path d="M25182 22352 c-9 -6 -4 -16 18 -37 16 -15 35 -44 41 -63 16 -49 5
-275 -21 -408 -36 -184 -68 -337 -79 -376 -25 -87 -31 -106 -49 -158 -17 -49
-73 -160 -200 -400 -22 -42 -58 -112 -81 -157 -23 -44 -47 -83 -54 -86 -6 -3
-30 -39 -51 -81 -22 -42 -43 -76 -48 -76 -4 0 -17 -18 -28 -40 -11 -22 -33
-54 -48 -72 -16 -18 -41 -53 -56 -78 -41 -68 -90 -137 -140 -199 -25 -31 -74
-92 -109 -136 -113 -141 -400 -429 -593 -596 -16 -14 -66 -57 -109 -95 -79
-68 -109 -92 -311 -243 -119 -89 -255 -182 -333 -229 -31 -19 -81 -51 -113
-73 -31 -21 -59 -39 -63 -39 -3 0 -33 -18 -65 -40 -32 -22 -61 -40 -65 -40 -3
0 -48 -26 -100 -57 -52 -32 -112 -67 -133 -79 -20 -11 -66 -38 -102 -60 -36
-21 -89 -50 -117 -63 -29 -14 -53 -28 -53 -33 0 -4 -5 -8 -12 -8 -6 0 -53 -25
-103 -55 -51 -30 -121 -69 -156 -86 -67 -33 -135 -70 -235 -128 -33 -18 -72
-40 -89 -49 -43 -22 -132 -92 -266 -207 -64 -55 -129 -111 -145 -124 -16 -13
-61 -54 -99 -90 -253 -238 -278 -264 -442 -458 -141 -166 -158 -186 -176 -217
-11 -17 -34 -47 -52 -66 -18 -19 -49 -60 -68 -90 -19 -31 -42 -62 -52 -70 -9
-7 -36 -43 -59 -79 -24 -36 -56 -80 -73 -98 -35 -38 -143 -212 -143 -232 0 -8
-13 -36 -30 -63 -16 -26 -30 -55 -30 -64 0 -9 -11 -37 -24 -63 -13 -25 -29
-64 -35 -86 -14 -43 -46 -131 -67 -180 -7 -16 -20 -56 -29 -87 -9 -32 -21 -60
-26 -63 -5 -4 -9 -19 -9 -35 0 -16 -4 -32 -10 -35 -5 -3 -10 -23 -10 -43 0
-20 -14 -95 -30 -166 -17 -72 -30 -141 -30 -155 0 -28 -34 -139 -56 -184 -8
-16 -14 -35 -14 -43 0 -8 -11 -36 -25 -62 -14 -26 -25 -54 -25 -62 0 -8 -9
-30 -20 -48 -11 -18 -20 -41 -20 -51 0 -11 -6 -32 -14 -48 -8 -15 -22 -55 -32
-88 -10 -33 -21 -64 -25 -70 -3 -5 -9 -30 -13 -55 -4 -25 -18 -67 -32 -94 -27
-51 -38 -84 -144 -416 -35 -107 -67 -202 -71 -210 -11 -19 -38 -95 -48 -137
-5 -17 -23 -56 -40 -86 -17 -30 -31 -62 -31 -71 0 -9 -13 -40 -30 -69 -16 -30
-30 -61 -30 -71 0 -9 -20 -52 -45 -95 -25 -43 -45 -86 -45 -97 0 -10 -24 -59
-54 -109 -30 -49 -58 -107 -64 -127 -5 -20 -35 -79 -65 -130 -30 -51 -57 -106
-61 -123 -4 -16 -36 -80 -72 -141 -35 -61 -64 -119 -64 -129 0 -10 -36 -81
-80 -157 -44 -76 -80 -147 -80 -158 0 -11 -35 -80 -79 -153 -109 -182 -117
-198 -124 -232 -3 -17 -55 -114 -115 -215 -60 -102 -209 -356 -332 -565 -325
-554 -346 -588 -372 -611 -13 -11 -50 -63 -81 -116 -31 -53 -64 -98 -72 -102
-8 -3 -34 -36 -58 -73 -24 -37 -52 -75 -62 -83 -10 -8 -34 -40 -54 -70 -19
-30 -47 -68 -63 -85 -15 -16 -45 -48 -66 -70 -20 -22 -48 -56 -60 -77 -12 -20
-29 -39 -37 -42 -8 -3 -31 -30 -50 -60 -19 -31 -44 -60 -55 -66 -11 -6 -27
-24 -35 -40 -8 -16 -32 -47 -53 -69 -92 -98 -112 -121 -127 -145 -10 -14 -35
-45 -56 -68 -22 -24 -55 -61 -75 -83 -20 -22 -82 -87 -138 -145 -55 -58 -112
-121 -126 -140 -29 -41 -74 -88 -382 -397 -124 -125 -232 -234 -240 -242 -28
-29 -127 -124 -217 -208 -51 -48 -123 -117 -160 -153 -37 -36 -100 -94 -141
-130 -41 -36 -81 -72 -90 -80 -9 -8 -45 -40 -80 -70 -35 -30 -92 -81 -126
-112 -35 -32 -68 -58 -73 -58 -9 0 -126 -97 -196 -164 -22 -21 -63 -53 -90
-71 -28 -18 -57 -40 -65 -50 -7 -9 -27 -23 -44 -32 -17 -9 -53 -38 -81 -65
-27 -27 -63 -57 -80 -65 -16 -9 -47 -31 -68 -49 -20 -19 -42 -34 -47 -34 -5 0
-27 -15 -47 -33 -21 -18 -55 -44 -75 -56 -21 -12 -38 -26 -38 -31 0 -5 -26
-23 -57 -41 -32 -17 -71 -44 -88 -59 -16 -15 -52 -39 -80 -55 -27 -15 -67 -43
-88 -62 -20 -18 -42 -33 -47 -33 -5 0 -27 -15 -47 -33 -21 -18 -60 -46 -88
-62 -27 -16 -57 -37 -65 -46 -8 -10 -60 -44 -115 -75 -55 -31 -111 -67 -125
-79 -14 -13 -53 -39 -87 -59 -34 -20 -66 -43 -70 -50 -4 -7 -50 -37 -100 -65
-51 -29 -96 -58 -100 -66 -5 -7 -69 -48 -143 -90 -74 -42 -142 -84 -150 -94
-8 -11 -80 -55 -160 -99 -80 -44 -156 -92 -170 -105 -14 -14 -104 -69 -200
-122 -96 -53 -182 -105 -190 -115 -12 -15 -253 -160 -265 -160 -2 0 -32 -16
-67 -36 -54 -31 -180 -102 -373 -209 -27 -15 -191 -107 -363 -203 -173 -96
-329 -178 -348 -182 -19 -4 -79 -33 -133 -64 -54 -31 -107 -56 -116 -56 -15 0
-97 -41 -223 -112 -18 -10 -42 -18 -53 -18 -11 0 -50 -15 -87 -34 -37 -19 -83
-40 -102 -46 -19 -7 -62 -23 -95 -35 -33 -13 -76 -29 -95 -35 -19 -7 -60 -23
-90 -35 -52 -21 -66 -26 -150 -55 -19 -7 -58 -23 -85 -36 -28 -13 -59 -24 -70
-24 -11 0 -30 -6 -41 -14 -12 -8 -55 -24 -96 -35 -42 -11 -94 -29 -116 -40
-23 -12 -48 -21 -56 -21 -9 0 -39 -11 -68 -24 -46 -21 -138 -47 -268 -75 -19
-4 -46 -15 -60 -24 -21 -14 -62 -26 -143 -42 -9 -2 -21 -7 -27 -10 -5 -3 -22
-8 -37 -10 -61 -9 -161 -38 -208 -60 -27 -13 -61 -26 -75 -29 -14 -2 -45 -10
-70 -16 -25 -7 -55 -14 -67 -16 -12 -2 -34 -9 -48 -14 -14 -5 -25 -7 -25 -4 0
2 -9 0 -19 -6 -11 -5 -50 -17 -88 -26 -65 -16 -105 -21 -203 -28 -44 -4 -65
-8 -180 -39 -30 -8 -68 -15 -85 -16 -69 -2 -179 -18 -205 -29 -22 -9 -107 -15
-180 -13 -14 0 -50 -2 -80 -5 -30 -3 -73 -6 -95 -7 -22 -1 -44 -5 -50 -8 -5
-3 -86 -5 -180 -4 -93 1 -179 -2 -190 -5 -11 -4 -36 -1 -58 7 -30 13 -43 13
-67 3 -25 -10 -37 -10 -69 4 -32 12 -46 13 -72 4 -24 -8 -40 -8 -66 1 -20 8
-50 10 -73 6 -23 -4 -55 -2 -75 5 -27 9 -43 9 -63 1 -22 -9 -38 -8 -81 8 -42
14 -61 17 -83 9 -22 -8 -42 -5 -93 13 -53 19 -69 20 -90 11 -21 -10 -36 -8
-88 11 -49 19 -69 22 -94 14 -26 -8 -45 -5 -93 13 -53 20 -64 21 -85 10 -21
-11 -32 -10 -81 9 -42 16 -69 20 -103 16 -35 -5 -59 -1 -105 18 -49 20 -65 23
-92 14 -27 -8 -45 -5 -105 17 -61 23 -77 25 -100 15 -24 -9 -40 -6 -111 21
-65 25 -86 30 -100 21 -26 -16 -31 -15 -140 29 -104 41 -128 46 -156 31 -12
-6 -59 8 -166 50 -130 52 -155 59 -195 54 -41 -5 -66 2 -211 60 -142 58 -170
66 -206 60 -38 -5 -83 10 -470 166 -544 217 -530 211 -537 240 -5 18 -20 30
-58 44 -34 14 -56 29 -66 48 -8 16 -29 35 -47 42 -22 9 -36 23 -40 40 -4 17
-17 30 -36 37 -18 6 -30 17 -30 27 0 10 -11 27 -25 39 -14 12 -25 28 -25 37 0
8 -9 19 -19 25 -11 5 -23 20 -27 32 -4 13 -15 29 -25 36 -11 7 -19 19 -19 26
0 7 -11 23 -25 36 -14 13 -25 30 -25 37 0 8 -7 16 -15 19 -8 3 -26 30 -40 60
-14 30 -35 60 -45 67 -11 6 -20 20 -20 29 0 9 -7 21 -15 25 -8 5 -33 46 -55
91 -21 45 -44 82 -49 82 -5 0 -14 13 -20 30 -5 16 -14 30 -19 30 -12 0 -52 66
-52 84 0 8 -7 19 -15 26 -8 7 -15 20 -15 30 0 10 -6 20 -14 23 -13 5 -106 184
-106 204 0 6 -9 13 -20 16 -11 3 -20 14 -20 25 0 11 -6 25 -13 31 -8 6 -20 29
-27 52 -8 22 -21 46 -30 52 -10 7 -20 22 -24 35 -4 12 -12 22 -17 22 -5 0 -9
10 -9 23 0 21 -38 140 -53 164 -4 6 -10 33 -13 60 -4 26 -12 57 -19 69 -7 11
-18 56 -24 100 -17 115 -22 135 -31 129 -4 -3 -11 -37 -15 -75 -6 -61 -5 -74
11 -92 17 -18 19 -34 16 -137 -3 -93 0 -120 12 -136 12 -16 15 -49 16 -157 0
-80 4 -139 10 -143 6 -3 10 -51 10 -109 0 -74 4 -107 15 -122 11 -15 14 -52
15 -165 0 -112 3 -150 15 -165 11 -15 14 -53 15 -171 0 -95 4 -153 10 -153 6
0 10 -88 10 -243 0 -198 3 -247 15 -263 8 -10 15 -30 15 -44 0 -18 21 -46 70
-95 58 -58 70 -75 70 -102 0 -18 5 -33 10 -33 6 0 10 -11 10 -25 0 -14 14 -51
30 -82 17 -31 30 -66 30 -78 0 -12 11 -32 25 -45 14 -13 25 -30 25 -38 0 -8
43 -58 95 -111 52 -54 95 -101 95 -107 0 -5 11 -21 25 -36 14 -15 25 -33 25
-41 0 -16 182 -197 199 -197 7 0 24 -11 39 -25 15 -14 38 -25 52 -25 21 0 30
-8 43 -38 9 -21 17 -45 17 -53 0 -9 7 -24 15 -35 8 -10 15 -26 15 -35 0 -9 7
-22 15 -29 8 -7 15 -25 15 -39 0 -16 10 -37 25 -51 14 -13 25 -31 25 -39 0
-21 170 -191 191 -191 9 0 26 -11 39 -25 14 -15 35 -25 51 -25 14 0 32 -7 39
-15 7 -8 20 -15 30 -15 10 0 23 -7 30 -15 7 -8 28 -15 46 -15 19 0 34 -4 34
-10 0 -5 39 -11 87 -12 l88 -3 30 -59 c29 -56 38 -66 75 -80 8 -4 29 -15 45
-25 17 -11 37 -20 46 -20 9 -1 22 -8 29 -16 7 -8 27 -15 45 -15 19 0 35 -4 37
-8 4 -11 131 -72 149 -72 27 0 93 -40 136 -82 l43 -42 0 -113 0 -113 34 0 c18
0 39 -7 46 -15 7 -8 22 -15 35 -15 20 0 144 -56 155 -70 24 -30 59 -40 147
-40 55 0 93 -4 93 -10 0 -5 23 -10 50 -10 36 0 52 -4 56 -15 4 -8 14 -15 24
-15 10 0 23 -7 30 -15 7 -8 21 -15 31 -15 10 0 21 -4 24 -10 3 -5 15 -10 26
-10 11 0 22 -7 25 -15 4 -8 14 -15 24 -15 10 0 37 -19 60 -42 24 -24 44 -38
48 -32 20 30 77 44 179 44 57 0 111 -4 121 -9 62 -32 73 -34 84 -23 21 21 123
14 170 -10 52 -26 148 -117 148 -139 0 -9 7 -22 15 -29 8 -7 15 -20 15 -30 0
-24 24 -32 47 -15 10 8 25 15 34 15 9 0 22 7 29 15 7 8 21 15 31 15 11 0 19 5
19 10 0 6 31 10 74 10 53 0 77 4 86 15 7 8 19 15 27 15 8 0 33 18 56 40 l41
40 26 -25 c14 -14 33 -25 42 -25 9 0 19 -4 22 -9 3 -5 24 -18 46 -30 32 -16
59 -21 125 -21 46 0 87 5 90 10 3 6 13 10 21 10 10 0 14 -12 14 -38 0 -41 26
-82 52 -82 9 0 21 -7 28 -15 7 -8 20 -15 30 -15 24 0 42 -24 85 -112 l37 -78
43 0 c24 0 47 -5 50 -10 10 -17 42 -11 89 15 39 22 57 25 144 25 71 0 104 -4
118 -15 31 -24 177 -20 231 6 23 11 45 25 49 30 3 5 13 9 23 9 21 0 71 50 71
72 0 9 4 20 10 23 5 3 20 28 32 55 22 48 40 61 53 40 3 -5 15 -10 26 -10 10 0
19 -4 19 -10 0 -6 33 -10 78 -10 65 0 86 -4 123 -25 24 -14 51 -27 59 -31 8
-3 23 -10 32 -15 10 -5 38 -9 63 -9 36 0 45 3 45 17 0 20 198 223 217 223 15
0 72 31 93 49 11 11 16 42 20 115 5 91 7 101 25 105 11 2 23 8 27 15 5 8 11 7
20 -2 15 -15 214 -17 223 -2 3 6 18 10 32 10 30 0 103 -30 103 -42 0 -4 42 -8
93 -8 84 0 98 3 157 32 36 18 75 42 87 53 24 21 63 91 63 111 0 6 7 17 15 24
11 9 15 34 15 95 0 88 13 115 58 115 25 0 148 63 178 91 11 10 27 19 36 19 9
0 18 3 20 8 4 10 67 42 83 42 7 0 18 7 25 15 7 8 20 15 30 15 10 0 23 7 30 15
7 8 21 15 31 15 11 0 19 5 19 10 0 6 8 10 19 10 10 0 24 7 31 15 7 8 20 15 30
15 10 0 23 7 30 15 7 8 19 15 27 15 8 0 24 11 35 25 11 14 28 25 38 25 9 0 23
7 30 15 7 8 20 15 30 15 10 0 23 7 30 15 7 8 21 15 31 15 11 0 19 5 19 10 0 6
8 10 18 10 11 0 27 10 38 21 10 12 46 34 79 49 33 15 69 37 79 49 11 11 22 21
26 21 14 0 50 -38 50 -52 0 -16 70 -88 86 -88 15 0 72 -29 79 -41 7 -11 215
-12 215 -1 0 8 69 42 86 42 16 0 74 64 74 82 0 8 7 21 15 28 8 7 15 20 15 30
0 10 6 20 14 23 10 4 16 24 18 54 l3 48 72 3 c47 2 75 8 83 17 7 8 21 15 31
15 11 0 19 4 19 9 0 5 10 13 23 16 36 11 75 55 107 119 29 58 30 62 30 215 l0
156 35 38 c18 20 40 37 48 37 8 0 20 7 27 15 16 19 64 19 80 0 18 -22 202 -22
220 0 7 8 21 15 31 15 11 0 19 5 19 10 0 6 7 10 15 10 25 0 83 59 107 108 12
26 23 48 24 50 1 2 10 -1 21 -7 10 -5 25 -12 33 -15 8 -4 33 -17 55 -31 34
-21 53 -24 126 -25 65 0 90 4 99 15 7 8 20 15 30 15 10 0 23 7 30 15 7 8 20
15 29 15 10 0 29 12 43 28 30 32 88 150 88 179 0 22 39 63 61 63 19 0 79 64
79 84 0 23 13 20 40 -9 13 -14 29 -25 36 -25 15 0 78 -32 82 -42 2 -5 48 -8
101 -8 94 0 150 14 166 41 4 5 14 9 24 9 22 0 81 60 81 83 0 10 7 20 15 23 8
4 15 14 15 24 0 10 7 23 15 30 8 7 15 21 15 32 0 10 8 21 18 24 78 26 121 64
162 147 30 59 30 62 30 218 l0 158 28 15 c15 8 36 23 46 35 11 12 26 21 36 21
9 0 34 18 55 40 21 22 46 40 55 40 9 0 27 11 40 25 13 14 29 25 35 25 6 0 25
13 41 30 16 16 36 30 44 30 9 0 34 18 55 40 21 22 47 40 57 40 10 0 20 10 24
25 3 14 13 25 23 25 9 0 35 18 56 40 35 36 44 40 86 40 26 0 51 -4 54 -10 3
-5 23 -10 44 -10 20 0 46 -7 57 -15 27 -20 147 -20 164 0 7 9 29 15 51 15 22
0 49 5 62 12 12 6 29 15 37 19 8 4 35 18 60 30 47 23 140 105 140 124 0 5 10
21 23 35 36 41 87 152 87 191 0 36 24 69 49 69 8 0 29 14 48 30 18 17 38 30
44 30 5 0 22 11 37 25 15 14 32 25 37 25 6 0 29 18 50 40 21 22 46 40 55 40 9
0 27 11 40 25 13 14 31 25 40 25 9 0 34 18 55 40 21 22 44 40 50 40 6 0 35 25
65 55 30 30 61 55 70 55 9 0 40 25 70 55 30 30 61 55 70 55 9 0 45 29 80 65
35 36 69 65 76 65 17 0 48 32 62 63 6 15 19 27 27 27 9 0 37 23 64 50 27 28
55 50 62 50 20 0 299 282 299 301 0 8 14 22 32 30 18 8 39 28 48 44 12 21 25
31 46 33 16 2 33 8 38 13 6 5 17 9 25 9 9 0 27 12 41 26 13 14 34 30 47 35 13
5 23 17 23 28 0 11 3 21 8 23 10 4 42 67 42 82 0 17 93 106 111 106 9 0 24 10
35 21 10 12 29 25 40 29 20 8 84 121 84 147 0 6 12 18 26 28 26 16 28 16 78
-9 28 -14 67 -26 86 -26 19 0 44 -7 54 -15 26 -20 134 -19 160 0 11 8 39 15
62 15 23 0 44 3 46 8 4 10 67 42 82 42 7 0 25 14 41 30 16 17 36 30 44 30 18
0 71 49 71 67 0 7 13 28 30 46 17 19 30 42 30 50 0 9 4 18 9 22 19 11 41 69
41 106 0 21 7 44 15 53 13 12 15 55 15 259 l0 244 25 23 c14 13 25 31 25 40 0
9 14 29 30 45 17 16 30 35 30 42 0 8 8 16 18 20 25 9 62 44 62 60 0 7 11 18
25 23 14 5 25 15 25 23 0 7 25 37 55 67 30 30 55 61 55 70 0 9 15 30 33 48 28
27 40 32 83 32 29 0 59 6 70 15 10 8 38 15 60 15 24 0 47 6 54 15 7 8 18 15
25 15 16 0 73 29 80 41 4 5 14 9 23 9 21 0 112 90 112 110 0 7 9 23 20 35 32
34 80 136 80 170 0 17 7 40 15 51 11 14 14 51 15 154 l0 136 48 47 c56 55 79
59 148 22 26 -14 64 -25 84 -25 21 0 43 -7 50 -15 9 -10 32 -15 76 -15 42 0
67 5 78 15 8 9 33 15 59 15 27 0 49 6 57 15 7 8 21 15 30 15 10 0 20 3 22 8 4
10 67 42 82 42 16 0 106 92 106 110 0 7 9 23 19 34 34 36 91 156 91 190 0 17
4 36 10 42 6 6 11 171 12 434 l3 425 62 3 c38 2 66 8 73 17 7 8 21 15 30 15
10 0 27 11 38 25 11 14 27 25 35 25 9 0 29 26 46 62 l31 61 0 227 c0 190 2
230 15 240 8 7 15 18 15 25 0 18 35 55 53 55 9 0 22 12 29 28 11 23 20 27 61
30 26 2 47 7 47 13 0 5 8 9 19 9 10 0 24 7 31 15 7 8 20 15 30 15 10 0 23 7
30 15 7 8 19 15 28 15 19 0 102 83 102 102 0 8 14 27 30 43 17 16 30 34 30 42
0 7 11 32 25 57 14 25 25 60 25 79 0 18 7 42 15 53 12 16 14 83 15 421 0 257
4 404 10 408 6 3 10 15 10 25 0 13 17 27 53 44 52 24 137 100 137 122 0 6 11
20 24 33 12 12 33 46 46 76 13 30 27 55 32 55 4 0 8 21 8 48 0 26 7 56 15 66
13 17 15 90 15 472 0 291 4 455 10 459 6 3 10 19 10 34 0 15 7 36 15 47 8 10
15 26 15 35 0 9 7 19 15 23 9 3 15 18 15 38 0 18 7 42 15 52 8 11 15 30 15 42
0 13 5 26 10 29 6 3 10 14 10 24 0 10 7 24 15 31 8 7 15 25 15 40 0 15 7 33
15 40 8 7 15 28 15 46 0 19 5 34 10 34 6 0 10 15 10 34 0 18 7 39 15 46 8 7
15 27 15 45 0 20 6 35 15 39 8 3 15 14 15 25 0 11 5 23 10 26 6 3 10 14 10 24
0 10 7 24 15 31 9 7 15 29 15 55 0 26 6 48 15 55 11 9 15 34 15 96 0 45 5 86
10 89 6 3 10 26 10 49 0 27 6 48 15 56 8 7 15 22 15 33 0 30 90 209 117 232
13 11 23 28 23 37 0 9 5 20 10 23 6 3 10 14 10 24 0 9 14 30 30 46 17 16 30
36 30 45 0 9 9 25 21 36 11 10 31 41 44 69 14 28 40 66 60 85 19 18 35 41 35
50 0 9 11 27 25 40 14 13 25 29 25 35 0 6 25 37 55 68 30 31 55 62 55 70 0 7
25 37 55 67 30 30 55 62 55 70 0 9 11 27 25 40 14 13 25 30 25 37 0 8 8 16 18
20 9 4 32 19 50 35 24 20 43 28 71 28 22 0 44 6 51 15 7 8 20 15 29 15 10 0
28 11 41 25 13 14 30 25 37 25 7 0 18 11 23 24 5 13 14 27 19 31 6 3 11 14 11
24 0 10 7 24 15 31 10 8 15 30 15 65 0 57 23 115 46 115 9 0 47 32 86 70 l71
70 85 0 c91 0 150 19 187 60 10 11 25 20 34 20 21 0 81 127 81 173 0 27 7 42
35 66 20 17 42 31 49 31 7 0 23 11 36 25 13 14 31 25 40 25 9 0 29 14 45 30
16 17 36 30 46 30 9 0 20 7 23 15 3 9 20 22 39 30 18 7 41 23 51 34 11 12 27
21 36 21 9 0 29 14 45 30 16 17 35 30 43 30 8 0 23 11 34 25 11 14 27 25 37
25 9 0 30 14 46 30 16 17 36 30 45 30 9 0 27 11 40 25 13 14 30 25 37 25 8 0
26 11 41 25 15 14 32 25 38 25 5 0 23 14 39 30 16 17 36 30 45 30 9 0 34 18
55 40 21 22 47 40 56 40 10 0 26 11 37 25 11 14 25 25 32 25 7 0 28 14 47 30
27 24 43 30 81 30 52 0 116 26 146 59 11 12 27 21 38 21 10 0 18 5 18 12 0 6
14 41 32 77 34 71 146 196 184 205 12 3 24 14 27 25 2 10 17 25 33 32 16 8 35
29 43 47 8 17 21 32 29 32 9 0 41 25 73 55 46 44 64 55 91 55 40 0 105 29 132
59 17 19 30 21 133 21 69 0 113 4 113 10 0 6 7 10 15 10 8 0 30 14 48 30 19
17 41 30 48 30 13 1 49 64 49 87 0 6 7 16 15 23 12 10 15 45 15 199 0 187 0
188 25 211 14 13 25 31 25 40 0 8 32 47 70 85 39 38 70 77 70 85 0 9 18 34 40
55 22 21 40 47 40 57 0 10 5 18 12 18 6 0 41 14 77 32 72 35 151 102 151 128
0 9 11 27 25 40 14 13 25 31 25 41 0 9 7 22 15 29 8 7 15 19 15 27 0 8 7 21
15 29 8 9 15 33 15 54 0 21 5 42 10 45 6 3 10 39 10 79 0 53 4 77 15 86 8 7
15 26 15 41 0 21 6 32 23 38 27 11 87 70 87 87 0 6 7 17 15 24 13 11 15 100
15 692 0 626 -1 682 -17 711 -26 48 -85 107 -105 107 -10 0 -18 5 -18 10 0 12
-50 13 -68 2z"/>
<path d="M23745 21765 c-132 -7 -260 -16 -285 -20 -41 -6 -159 -23 -320 -45
-130 -18 -332 -55 -386 -71 -17 -5 -42 -9 -55 -9 -33 0 -207 -38 -230 -50 -10
-6 -32 -10 -48 -10 -17 0 -39 -4 -49 -9 -9 -6 -53 -17 -97 -26 -44 -9 -98 -22
-120 -30 -22 -7 -58 -18 -80 -23 -22 -6 -87 -24 -145 -42 -58 -17 -123 -36
-145 -42 -34 -9 -76 -23 -170 -58 -11 -4 -67 -22 -125 -41 -58 -18 -112 -36
-120 -40 -8 -5 -49 -20 -90 -34 -41 -14 -88 -32 -105 -39 -16 -7 -55 -21 -85
-31 -30 -9 -77 -28 -104 -41 -28 -13 -53 -24 -58 -24 -10 0 -251 -107 -390
-174 -53 -25 -101 -46 -107 -46 -6 0 -15 -9 -21 -19 -12 -24 -13 -390 -1 -410
7 -11 36 -1 144 53 75 36 138 66 142 66 3 0 49 21 101 46 109 52 324 144 337
144 5 0 23 6 40 14 59 26 140 56 148 56 5 0 28 8 52 19 45 19 252 86 377 122
83 23 147 43 170 51 26 9 233 60 265 65 17 2 39 8 50 13 11 5 38 11 60 14 22
3 90 15 150 27 149 29 205 37 310 49 50 5 133 14 185 19 127 14 177 14 189 -1
6 -7 24 -30 42 -51 17 -20 28 -43 25 -50 -4 -6 -24 -41 -46 -77 -22 -36 -54
-89 -71 -117 -17 -29 -35 -53 -40 -53 -5 0 -21 -19 -35 -42 -15 -24 -42 -61
-61 -83 -20 -22 -49 -56 -65 -75 -296 -341 -629 -640 -988 -886 -246 -168
-617 -404 -635 -404 -3 0 -34 -18 -70 -40 -36 -22 -69 -40 -74 -40 -4 0 -23
-10 -42 -23 -19 -12 -54 -31 -79 -42 -25 -10 -61 -29 -80 -40 -19 -12 -71 -36
-115 -55 -44 -19 -97 -44 -117 -57 -21 -13 -40 -23 -42 -23 -3 0 -37 -15 -78
-34 -193 -89 -297 -126 -353 -126 -32 0 -55 35 -55 85 0 22 7 90 15 150 27
194 28 207 11 314 -9 57 -21 111 -25 120 -5 9 -12 34 -16 55 -15 88 -185 338
-206 304 -14 -21 -10 -54 6 -68 9 -8 15 -29 15 -56 0 -23 5 -46 10 -49 6 -3
10 -23 10 -44 0 -20 7 -46 15 -57 8 -10 15 -37 15 -59 0 -22 7 -49 15 -59 10
-13 15 -44 15 -88 0 -39 4 -68 10 -68 6 0 10 -38 10 -93 0 -66 4 -99 15 -113
9 -12 14 -44 15 -90 0 -51 4 -75 15 -84 8 -7 15 -18 15 -26 0 -7 9 -18 19 -24
12 -6 17 -17 15 -28 -3 -10 5 -27 20 -41 14 -14 26 -32 26 -40 0 -9 7 -25 15
-35 12 -16 15 -54 15 -177 0 -95 4 -160 10 -164 6 -3 10 -14 10 -24 0 -10 7
-24 15 -31 10 -8 15 -38 17 -103 4 -115 9 -116 121 -25 156 127 242 194 282
218 22 13 69 45 105 71 36 26 101 66 145 89 142 76 318 169 375 198 30 16 69
36 85 45 165 90 310 169 373 202 43 23 131 73 197 112 66 39 139 82 161 95 70
39 217 130 244 150 63 48 238 175 261 190 14 9 32 23 40 30 8 8 37 31 64 52
105 79 343 294 444 399 96 101 125 135 148 170 14 20 30 37 35 37 4 0 13 11
18 25 5 14 16 28 24 31 9 3 26 25 40 47 13 23 36 53 50 66 14 14 26 30 26 36
0 6 14 24 31 41 17 16 42 50 55 76 13 26 32 52 42 57 10 5 28 31 41 57 13 26
38 63 56 83 18 20 60 86 95 146 35 61 74 128 87 150 13 22 35 65 49 95 14 30
31 68 39 83 8 16 15 35 15 44 0 8 6 27 14 41 8 15 19 45 24 67 6 22 25 88 42
147 17 60 30 123 28 140 l-3 33 -70 1 c-38 1 -178 -4 -310 -11z"/>
<path d="M12414 21725 c-34 -15 -50 -31 -141 -140 -70 -84 -123 -156 -184
-250 -25 -38 -69 -106 -98 -150 -66 -102 -162 -289 -205 -402 -19 -48 -52
-126 -74 -173 -45 -97 -116 -319 -141 -441 -43 -208 -53 -269 -62 -374 -12
-152 4 -254 71 -450 56 -165 67 -190 97 -231 43 -58 91 -181 112 -289 7 -33
16 -80 21 -105 21 -100 22 -125 10 -242 -12 -128 -22 -189 -45 -273 -8 -27
-23 -90 -34 -140 -12 -49 -39 -142 -62 -205 -22 -63 -45 -129 -50 -146 -10
-32 -144 -301 -182 -364 -11 -19 -68 -106 -126 -194 -58 -87 -119 -179 -135
-205 -62 -96 -263 -402 -363 -551 -209 -311 -317 -454 -469 -618 -39 -42 -75
-85 -81 -95 -5 -9 -58 -68 -119 -130 -60 -61 -118 -125 -129 -142 -17 -28
-313 -330 -762 -780 -104 -104 -220 -215 -257 -245 -37 -30 -88 -73 -112 -95
-24 -22 -100 -92 -170 -155 -70 -63 -201 -188 -293 -277 -91 -89 -191 -182
-221 -207 -114 -94 -237 -206 -399 -364 -92 -90 -178 -171 -192 -180 -31 -21
-373 -369 -378 -385 -2 -7 -36 -46 -75 -88 -83 -89 -125 -140 -186 -227 -25
-35 -72 -94 -105 -132 -33 -37 -80 -93 -105 -124 -25 -31 -63 -79 -85 -105
-22 -27 -69 -91 -105 -142 -36 -51 -90 -120 -120 -153 -31 -34 -68 -77 -83
-98 -15 -20 -33 -42 -40 -50 -8 -7 -26 -31 -40 -53 -15 -22 -42 -60 -61 -85
-19 -25 -51 -72 -72 -105 -21 -33 -40 -62 -43 -65 -4 -3 -19 -23 -34 -45 -15
-22 -43 -60 -62 -85 -19 -25 -43 -56 -52 -69 -18 -25 -86 -393 -78 -421 5 -16
11 -106 20 -270 3 -58 9 -130 14 -160 5 -30 10 -89 10 -130 3 -137 75 -271
237 -437 29 -29 57 -53 63 -53 7 0 23 -12 36 -26 23 -25 74 -44 125 -47 l25
-2 3 459 c2 357 -1 462 -10 474 -7 8 -18 29 -23 46 -9 26 -6 39 18 86 15 30
32 59 37 64 6 6 10 17 10 26 0 9 18 34 40 55 22 21 40 47 40 56 0 9 7 19 15
23 8 3 20 18 27 33 6 15 27 44 45 63 31 34 73 104 73 123 0 4 11 20 25 35 14
15 25 33 25 40 0 7 11 17 25 22 14 5 29 20 34 32 5 13 18 32 30 42 11 11 21
26 21 34 0 8 14 30 30 49 17 18 30 38 30 43 0 18 53 70 70 70 10 0 23 7 30 15
7 8 20 15 29 15 21 0 81 60 81 82 0 8 7 21 15 28 8 7 15 21 15 31 0 11 5 19
10 19 6 0 10 35 10 85 0 79 2 86 30 118 17 19 30 39 30 44 0 15 61 73 76 73 8
0 20 12 26 26 7 15 88 101 180 193 92 92 171 179 177 194 6 15 17 27 24 27 18
0 75 28 82 41 4 5 14 9 24 9 10 0 24 7 31 15 7 8 20 15 29 15 25 0 65 47 91
105 24 53 205 245 232 245 8 0 25 11 38 25 13 14 31 25 41 25 9 0 23 7 30 16
8 9 30 27 50 39 19 13 49 37 66 54 18 17 38 31 45 31 8 0 25 11 38 25 13 14
31 25 40 25 9 0 34 18 55 40 21 22 44 40 50 40 5 0 22 11 37 25 22 20 37 25
81 25 36 0 59 5 67 15 7 8 20 15 30 15 10 0 23 7 30 15 7 8 19 15 26 15 32 0
104 94 104 136 0 6 7 17 15 24 8 7 15 24 15 39 0 20 20 46 80 106 44 44 80 87
80 97 0 10 10 20 25 24 13 3 27 16 31 27 8 29 274 297 294 297 21 0 80 61 80
82 0 8 7 21 15 28 8 7 15 20 15 29 0 9 5 22 11 28 6 6 17 22 23 34 6 13 22 29
35 35 12 6 28 17 34 23 6 6 18 11 27 11 20 0 80 61 80 82 0 8 7 21 15 28 8 7
15 18 15 25 0 7 7 18 15 25 10 8 15 31 15 69 l0 56 184 184 c102 102 187 195
191 208 3 14 13 23 24 23 20 0 61 44 61 65 0 17 33 45 53 45 9 0 19 11 22 23
4 13 42 59 86 103 43 43 79 83 79 89 0 6 11 22 24 36 13 14 26 34 28 45 2 10
12 20 23 22 24 5 55 36 55 54 0 8 25 38 55 68 30 30 55 61 55 70 0 9 18 34 40
55 22 21 40 44 40 50 0 5 11 22 25 37 14 15 25 33 25 41 0 7 16 29 36 48 20
18 47 58 61 88 14 30 36 66 49 80 13 14 24 31 24 37 0 6 11 21 25 34 14 13 25
31 25 41 0 9 7 22 15 29 8 7 15 19 15 26 0 8 9 25 21 38 30 34 349 676 349
702 0 12 7 27 15 34 8 7 15 20 15 30 0 10 7 23 15 30 8 7 15 25 15 41 0 15 5
31 10 34 6 3 10 19 10 34 0 15 7 36 15 47 8 10 15 31 15 45 0 15 7 32 15 39 8
7 15 27 15 45 0 18 7 38 15 45 9 8 15 30 15 56 0 24 5 44 10 44 6 0 10 15 10
34 0 18 7 39 15 46 8 7 15 26 15 42 0 16 7 36 15 44 8 9 15 28 15 44 0 16 5
32 10 35 6 3 10 19 10 34 0 16 7 34 15 41 8 7 15 26 15 42 0 16 7 36 15 44 8
9 15 28 15 44 0 16 5 32 10 35 6 3 10 19 10 34 0 16 7 34 15 41 10 8 15 31 15
70 0 39 5 62 15 70 11 9 15 33 15 86 0 43 4 74 10 74 6 0 10 85 10 234 0 195
2 236 15 246 12 10 20 9 40 -4 13 -9 29 -16 35 -16 6 0 18 -7 26 -15 9 -8 29
-15 45 -15 28 0 29 -2 29 -44 0 -26 6 -48 15 -56 8 -7 15 -20 15 -29 0 -21 60
-81 82 -81 8 0 21 -7 28 -15 7 -8 25 -15 40 -15 15 0 33 7 40 15 7 8 20 15 29
15 25 0 66 48 92 108 l23 52 48 0 c26 0 48 5 48 10 0 6 7 10 15 10 8 0 30 14
48 30 19 17 41 30 49 30 13 0 48 63 48 87 0 6 7 16 15 23 12 10 15 46 15 199
1 167 3 188 19 209 11 12 26 22 33 22 8 0 25 11 38 25 28 30 40 32 40 7 0 -20
39 -62 57 -62 15 0 77 -33 81 -42 6 -14 207 -9 221 5 11 10 14 10 18 0 3 -7
13 -13 23 -13 9 0 23 -7 30 -15 10 -11 35 -15 110 -15 75 0 100 4 110 15 7 8
20 15 28 15 9 0 40 23 69 52 41 41 55 50 65 40 7 -7 20 -12 29 -12 9 0 22 -7
29 -15 9 -11 35 -15 105 -15 70 0 96 4 105 15 7 8 20 15 28 15 22 0 132 110
132 131 0 9 7 22 15 29 8 7 15 18 15 25 0 7 18 32 40 56 22 24 40 49 40 55 0
6 7 17 15 24 12 10 15 48 15 221 l0 209 25 0 c34 0 98 35 139 76 40 40 55 42
85 10 13 -13 34 -27 47 -30 20 -5 24 -13 24 -44 0 -41 27 -102 61 -138 21 -23
95 -64 114 -64 14 0 94 41 101 51 3 5 25 9 49 9 24 0 47 5 50 10 3 6 14 10 24
10 9 0 30 14 46 30 32 33 74 40 95 15 19 -23 178 -21 219 2 30 18 30 18 64
-15 18 -17 41 -32 50 -32 9 0 17 -4 17 -10 0 -16 53 -12 91 6 19 9 51 33 71
52 30 28 41 33 50 24 8 -8 45 -12 102 -12 95 0 153 18 191 60 17 19 19 19 37
4 10 -10 18 -25 18 -34 0 -20 54 -72 99 -94 38 -18 91 -22 91 -6 0 6 7 10 15
10 9 0 26 7 39 15 21 14 24 14 36 0 9 -11 34 -15 97 -15 91 0 117 9 181 63 41
34 51 34 117 -3 49 -27 63 -30 143 -30 67 0 93 4 102 15 7 8 20 15 29 15 10 0
28 11 41 25 13 14 29 25 36 25 6 0 17 7 24 15 11 13 15 13 33 0 12 -8 38 -15
59 -15 20 0 40 -4 43 -10 15 -23 121 0 140 31 9 14 41 11 55 -6 7 -8 34 -15
68 -17 l57 -3 6 -49 c3 -28 11 -52 17 -54 7 -2 12 -12 12 -22 0 -10 5 -22 10
-25 6 -3 10 -14 10 -24 0 -21 40 -61 62 -61 9 0 21 -7 28 -15 7 -8 21 -15 31
-15 11 0 19 -4 19 -10 0 -6 39 -10 98 -10 103 0 143 11 190 53 l22 21 28 -27
c16 -15 32 -27 37 -27 16 0 85 -34 85 -42 0 -4 26 -8 59 -8 40 0 63 -5 71 -15
9 -11 33 -15 85 -15 74 0 105 -15 105 -52 0 -21 27 -43 88 -69 28 -12 52 -26
52 -31 0 -4 41 -8 92 -8 97 0 155 18 193 60 10 11 26 20 35 20 10 0 23 7 30
15 15 18 89 20 94 3 3 -7 7 -25 10 -40 4 -19 13 -28 26 -28 13 0 22 9 26 28
13 59 74 168 118 211 33 31 46 51 46 71 0 15 7 33 15 40 8 7 15 20 15 30 0 20
30 50 50 50 7 0 21 7 30 15 14 13 22 14 44 4 22 -11 29 -9 49 7 12 11 44 30
70 43 26 13 58 33 71 44 28 26 94 67 107 67 10 0 178 92 219 120 25 18 72 45
145 83 80 42 75 27 75 254 0 162 -3 205 -14 209 -14 5 -232 -98 -412 -197 -28
-15 -93 -49 -145 -75 -52 -26 -105 -55 -119 -64 -48 -33 -175 -98 -238 -120
-70 -26 -60 -27 -212 29 -114 42 -350 103 -469 121 -35 6 -68 13 -73 16 -9 6
-75 17 -173 29 -21 3 -53 9 -70 14 -31 11 -217 39 -320 50 -33 4 -66 10 -74
15 -7 5 -52 12 -100 17 -47 4 -126 12 -176 17 -250 28 -363 33 -756 33 -344 0
-466 -4 -649 -21 -124 -11 -279 -25 -345 -30 -66 -6 -151 -14 -190 -20 -38 -5
-146 -17 -240 -25 -93 -9 -268 -27 -387 -41 -187 -22 -225 -24 -275 -14 -75
16 -126 42 -153 80 -12 16 -35 33 -53 38 -20 5 -33 16 -36 28 -10 58 -224 274
-409 412 -67 50 -134 98 -150 106 -15 8 -40 25 -55 38 -32 28 -257 148 -277
148 -8 0 -21 -7 -31 -16 -15 -14 -18 -13 -37 10 -11 15 -27 26 -35 26 -8 0
-20 7 -27 15 -7 8 -27 15 -45 15 -18 0 -38 -7 -45 -15 -7 -8 -18 -15 -24 -15
-6 0 -23 -11 -38 -25 -35 -32 -38 -32 -38 8 0 17 -10 53 -22 78 -20 42 -26 48
-77 62 -78 22 -254 64 -326 77 -33 6 -80 15 -105 21 -72 15 -208 38 -300 50
-47 6 -94 14 -105 19 -11 5 -33 11 -50 13 -16 2 -37 7 -45 10 -8 3 -29 -1 -46
-8z m291 -405 c3 -5 13 -10 22 -10 8 0 43 -13 77 -29 136 -64 212 -99 233
-105 12 -4 52 -22 90 -40 37 -18 79 -37 93 -41 14 -4 41 -18 60 -30 19 -12 64
-39 100 -59 36 -20 85 -49 110 -65 25 -15 74 -43 110 -62 64 -33 178 -118 254
-188 39 -37 103 -130 166 -243 19 -35 55 -83 80 -109 84 -85 99 -111 93 -158
-6 -42 -6 -42 -101 -87 -52 -26 -174 -72 -271 -104 -248 -82 -341 -119 -536
-215 -230 -114 -270 -138 -488 -284 -279 -187 -291 -193 -356 -186 -29 3 -62
10 -72 16 -32 16 -114 150 -137 222 -12 38 -31 85 -41 106 -11 20 -23 55 -26
76 -4 22 -12 49 -18 59 -16 31 -11 358 7 456 9 47 16 109 16 138 0 115 79 337
227 637 54 112 154 259 186 277 58 33 112 45 122 28z"/>
<path d="M20640 21675 c-7 -8 -18 -15 -24 -15 -18 0 -76 -63 -76 -82 0 -20 16
-32 25 -18 3 5 13 10 21 10 7 0 43 14 77 30 35 17 70 30 78 30 30 0 106 35
102 48 -6 17 -52 15 -59 -3 -4 -8 -14 -15 -24 -15 -10 0 -23 7 -30 15 -7 8
-27 15 -45 15 -18 0 -38 -7 -45 -15z"/>
<path d="M19874 21465 c-10 -8 -26 -15 -35 -15 -20 0 -65 -47 -89 -95 -21 -41
-26 -119 -10 -145 8 -13 13 -13 42 1 18 9 87 43 152 75 66 33 121 64 123 71 6
17 -66 93 -87 93 -10 0 -23 7 -30 15 -16 19 -41 19 -66 0z"/>
<path d="M9646 18042 c-2 -4 -7 -38 -11 -77 -4 -38 -11 -83 -16 -100 -49 -170
-89 -280 -144 -405 -21 -47 -44 -101 -53 -120 -12 -29 -66 -144 -135 -290 -10
-21 -88 -150 -167 -275 -51 -82 -238 -336 -319 -436 -26 -30 -57 -70 -71 -89
-28 -38 -115 -147 -159 -200 -16 -19 -67 -80 -113 -135 -93 -112 -561 -586
-623 -631 -22 -16 -106 -91 -187 -166 -81 -76 -151 -138 -155 -138 -4 0 -33
-23 -63 -52 -30 -28 -71 -61 -90 -73 -19 -13 -48 -37 -65 -55 -16 -18 -52 -47
-80 -66 -27 -18 -77 -56 -110 -84 -33 -27 -76 -61 -95 -75 -40 -29 -48 -35
-266 -200 -88 -66 -170 -130 -184 -142 -14 -13 -28 -23 -33 -23 -4 0 -26 -17
-50 -37 -23 -21 -49 -42 -58 -48 -35 -21 -167 -124 -174 -135 -4 -6 -20 -20
-36 -29 -16 -10 -48 -36 -72 -58 -23 -21 -55 -48 -72 -58 -16 -11 -68 -54
-115 -97 -46 -43 -88 -78 -93 -78 -5 0 -52 -41 -105 -91 -54 -50 -105 -94
-114 -98 -9 -3 -72 -58 -140 -122 -68 -63 -136 -124 -153 -134 -28 -18 -238
-210 -297 -272 -14 -15 -89 -91 -165 -168 -133 -134 -427 -451 -525 -565 -25
-30 -97 -115 -160 -187 -62 -73 -147 -173 -188 -224 -41 -50 -89 -107 -106
-127 -17 -20 -42 -53 -55 -73 -13 -20 -51 -71 -84 -114 -33 -42 -69 -89 -80
-105 -11 -16 -40 -55 -65 -88 -25 -33 -70 -96 -100 -141 -30 -45 -71 -103 -91
-129 -19 -26 -66 -98 -105 -160 -38 -62 -92 -149 -121 -195 -28 -45 -66 -111
-83 -147 -17 -36 -51 -97 -76 -136 -24 -40 -44 -78 -45 -85 0 -8 -15 -43 -34
-79 -18 -36 -45 -90 -60 -120 -32 -65 -157 -507 -151 -532 2 -10 -4 -48 -14
-85 -10 -38 -28 -104 -40 -148 -11 -44 -28 -102 -36 -130 -9 -27 -22 -104 -29
-170 -8 -66 -19 -156 -25 -200 -5 -44 -8 -98 -5 -120 2 -22 7 -103 10 -180 6
-179 17 -426 20 -490 4 -76 22 -207 34 -251 6 -21 18 -70 27 -109 9 -38 25
-86 35 -105 11 -19 23 -42 27 -50 5 -8 24 -46 43 -83 18 -37 49 -85 67 -105
19 -20 38 -47 43 -59 5 -13 15 -23 24 -23 13 0 15 38 15 299 0 253 2 300 15
311 12 10 15 40 15 149 1 104 4 141 15 155 8 11 15 37 15 57 0 21 5 41 10 44
6 3 10 26 10 49 0 27 6 48 15 56 10 8 15 31 15 70 0 39 5 62 15 70 8 7 15 25
15 41 0 15 5 31 10 34 5 3 10 28 10 55 0 33 5 50 15 54 10 4 15 19 15 49 0 59
29 87 90 87 47 0 117 29 145 60 10 11 27 20 37 20 10 0 21 8 24 18 3 9 10 25
15 34 5 10 9 25 9 33 0 9 7 18 15 21 13 5 15 66 15 464 l0 457 25 47 c14 26
25 58 25 70 0 13 7 29 15 36 8 7 15 21 15 31 0 12 10 23 25 29 14 5 25 16 25
24 0 7 7 19 15 26 8 7 15 21 15 32 0 10 7 21 15 24 11 5 15 22 15 66 0 39 5
64 15 74 8 9 15 28 15 44 0 16 5 32 10 35 6 3 10 26 10 49 0 26 6 48 14 56 8
6 16 26 18 43 3 32 4 32 62 35 34 2 65 9 73 18 8 7 20 14 27 14 7 0 23 11 36
25 13 14 32 25 42 25 10 0 21 8 24 18 6 16 54 118 73 152 38 70 41 81 41 169
l0 91 83 0 c56 1 88 5 101 15 26 19 51 19 81 -1 29 -19 55 -12 55 13 0 22 189
213 211 213 18 0 79 60 79 78 0 7 20 35 45 61 25 26 45 53 45 58 0 14 30 72
41 78 5 4 9 14 9 23 0 19 188 212 206 212 6 0 23 9 38 21 l26 20 0 170 c0 156
1 169 18 169 10 0 35 18 57 40 21 21 47 40 59 42 11 2 22 12 25 23 5 30 19 35
112 35 91 0 146 18 183 59 11 12 27 21 38 21 11 0 18 7 18 18 0 21 39 62 59
62 6 0 22 11 34 24 12 13 32 26 45 30 12 4 22 15 22 26 0 10 4 21 9 25 21 12
41 71 41 117 0 47 3 53 62 114 59 62 83 75 104 55 5 -6 53 -11 107 -12 l98 -3
100 100 99 99 0 150 0 151 33 32 c23 22 43 32 64 32 17 0 36 7 43 15 7 8 21
15 30 15 10 0 21 6 23 13 12 29 27 -22 27 -95 0 -42 3 -79 8 -81 4 -3 43 29
87 70 44 41 91 81 105 89 14 7 61 49 105 94 44 44 84 80 88 80 5 0 41 31 81
69 39 37 81 74 94 80 15 8 22 21 22 40 0 35 8 43 30 29 22 -14 61 16 220 170
64 61 120 112 126 112 5 0 31 21 57 48 l46 47 3 165 3 165 87 3 c61 2 90 7 98
17 7 8 20 15 29 15 10 0 28 11 41 25 13 14 31 25 40 25 27 0 74 114 80 195 l5
70 34 3 c19 2 37 -1 40 -6 18 -27 78 -42 165 -42 l91 0 103 103 102 102 0 83
c0 82 0 82 26 82 37 0 81 27 147 90 81 77 97 112 97 210 l0 80 59 0 c40 0 63
5 71 15 7 8 20 15 29 15 10 0 28 11 40 24 13 13 34 27 47 30 15 4 24 14 24 26
0 10 5 22 10 25 6 3 10 14 10 24 0 10 7 24 15 31 11 9 15 35 15 109 0 84 3 99
20 114 11 9 26 17 33 17 17 0 137 122 137 138 0 8 7 20 15 28 10 11 15 36 15
85 0 54 3 69 15 69 8 0 30 14 48 30 19 17 42 30 51 30 9 0 16 8 16 19 0 10 7
24 15 31 8 7 15 20 15 29 0 9 7 25 15 35 9 12 15 42 15 73 0 47 2 53 20 53 11
0 23 8 26 18 9 28 13 35 33 67 19 29 20 55 20 541 1 483 0 512 -18 550 -20 40
-67 89 -75 76z"/>
<path d="M7670 17815 c-93 -16 -173 -37 -270 -70 -41 -14 -88 -30 -105 -35
-88 -25 -394 -133 -445 -156 -19 -9 -69 -32 -110 -51 -41 -19 -138 -66 -216
-104 -78 -38 -143 -69 -147 -69 -3 0 -34 -16 -69 -36 -34 -20 -97 -54 -138
-76 -146 -79 -185 -101 -200 -112 -8 -6 -31 -20 -50 -30 -59 -31 -159 -94
-308 -195 -78 -53 -156 -105 -172 -116 -17 -11 -97 -73 -178 -138 -247 -199
-426 -380 -546 -552 -77 -110 -172 -263 -205 -330 -53 -109 -160 -222 -346
-367 -5 -5 -28 -20 -50 -35 -22 -14 -58 -39 -81 -54 -125 -86 -393 -207 -547
-248 -101 -27 -238 -41 -290 -29 -65 15 -115 4 -153 -33 -19 -18 -34 -41 -34
-50 0 -10 -5 -21 -10 -24 -14 -8 -14 -692 0 -700 6 -3 10 -14 10 -24 0 -21 60
-81 82 -81 8 0 21 -7 28 -15 7 -8 25 -15 40 -15 15 0 33 7 40 15 7 8 20 15 29
15 34 0 101 96 101 145 0 45 24 49 84 16 50 -28 63 -31 146 -31 71 0 92 3 96
15 4 8 15 15 26 15 11 0 29 11 39 24 10 13 30 27 44 30 15 4 25 13 25 25 0 10
7 24 15 31 8 7 15 20 15 30 0 10 7 20 15 23 11 5 15 28 17 94 l3 88 72 3 c47
2 75 8 83 17 7 8 19 15 27 15 7 0 24 9 36 21 12 11 32 25 45 30 12 5 22 17 22
28 0 10 7 21 15 25 8 3 15 14 15 24 0 11 7 25 15 32 8 7 15 26 15 43 0 29 31
67 55 67 6 0 22 11 35 25 13 14 31 25 41 25 9 0 22 7 29 15 7 8 21 15 30 15
10 0 27 11 38 25 11 14 26 25 34 25 26 0 108 101 108 134 0 7 7 19 15 26 8 7
15 20 15 30 0 20 31 50 52 50 8 0 25 12 39 26 13 14 34 30 47 35 12 5 22 15
22 22 0 7 14 26 30 42 17 16 30 37 30 47 0 11 7 18 18 18 22 0 62 40 62 63 0
9 5 19 10 22 6 3 10 15 10 26 0 11 7 22 15 25 11 5 15 22 15 64 0 39 5 62 15
70 8 7 15 21 15 31 0 10 5 21 10 24 6 3 10 15 10 25 0 10 6 23 14 27 8 4 15
17 17 28 4 17 13 21 58 23 30 2 64 10 75 18 11 8 32 14 47 14 15 0 32 7 39 15
7 8 25 15 41 15 15 0 31 5 34 10 3 6 14 10 24 10 10 0 24 7 31 15 7 8 21 15
32 15 10 0 21 7 24 15 4 8 14 15 24 15 11 0 22 5 25 10 3 6 14 10 24 10 9 0
30 14 46 30 16 17 36 30 45 30 21 0 50 31 50 52 0 9 7 21 15 28 8 7 15 21 15
31 0 10 5 21 10 24 6 3 10 30 10 60 0 34 5 59 15 69 8 8 15 28 15 44 0 39 28
62 77 62 24 0 46 6 53 15 7 8 25 15 39 15 15 0 36 7 47 15 10 8 27 15 37 15 9
0 17 5 17 10 0 6 7 10 15 10 8 0 30 14 48 30 19 17 42 30 51 30 9 0 16 7 16
15 0 8 14 30 30 48 17 19 30 42 30 50 0 9 5 19 11 22 5 4 14 18 19 31 8 21 16
24 62 24 31 1 61 7 72 15 11 8 39 15 63 15 24 0 43 5 43 10 0 6 15 10 34 10
18 0 39 7 46 15 7 8 22 15 33 15 28 0 100 36 122 60 10 11 25 20 32 20 18 0
83 65 83 83 0 22 94 107 118 107 20 0 40 8 82 32 8 4 27 13 43 19 15 6 27 15
27 20 0 5 8 9 18 9 10 0 29 11 42 25 14 14 35 25 50 25 14 0 35 7 46 15 26 20
35 19 65 -7 30 -27 85 -58 104 -58 7 0 18 -7 25 -15 7 -8 24 -15 39 -15 14 0
35 -7 45 -15 16 -12 61 -15 236 -15 175 0 220 3 236 15 10 8 26 15 35 15 9 0
22 7 29 15 7 8 19 15 27 15 8 0 24 11 35 25 11 14 27 25 37 25 19 0 72 51 91
89 7 13 15 19 19 14 3 -6 23 -18 44 -28 36 -17 39 -17 55 -1 13 13 17 35 17
100 -1 97 -20 150 -75 209 -47 52 -97 79 -208 116 -86 28 -103 31 -220 30 -70
-1 -161 -7 -202 -14z"/>
<path d="M5840 17690 c0 -5 4 -10 9 -10 6 0 13 5 16 10 3 6 -1 10 -9 10 -9 0
-16 -4 -16 -10z"/>
<path d="M5795 17660 c-3 -5 1 -10 9 -10 9 0 16 5 16 10 0 6 -4 10 -9 10 -6 0
-13 -4 -16 -10z"/>
<path d="M13870 17451 c-10 -9 -30 -38 -45 -66 -14 -27 -46 -86 -71 -130 -24
-44 -64 -118 -89 -165 -25 -47 -56 -103 -70 -125 -13 -22 -41 -69 -61 -105
-37 -64 -127 -221 -144 -250 -5 -8 -25 -42 -45 -75 -43 -73 -48 -82 -105 -170
-57 -89 -63 -100 -96 -155 -15 -25 -75 -117 -133 -204 -58 -87 -110 -166 -116
-175 -5 -9 -22 -32 -37 -52 -16 -20 -28 -41 -28 -45 0 -5 -12 -22 -26 -39 -14
-16 -41 -52 -60 -80 -18 -27 -51 -75 -73 -105 -22 -30 -49 -68 -58 -84 -10
-15 -33 -46 -50 -68 -18 -22 -33 -48 -33 -59 0 -16 8 -19 53 -21 28 -1 84 -3
122 -5 83 -3 47 -3 340 3 132 3 242 7 244 10 2 2 6 30 9 62 3 47 10 63 35 90
17 17 36 32 43 32 13 0 54 64 54 84 0 8 7 19 15 26 12 10 15 43 15 174 l0 162
33 31 c17 16 39 33 48 36 17 6 49 60 49 82 0 7 7 18 15 25 9 8 15 36 17 83 l3
72 57 3 c34 2 61 9 68 17 7 8 20 15 30 15 9 0 25 10 36 21 10 12 29 25 40 29
23 9 84 119 84 151 0 25 14 31 43 18 29 -13 97 14 139 56 32 32 68 98 68 126
0 11 9 30 21 42 11 12 25 32 30 45 8 22 49 32 49 12 0 -5 11 -12 24 -16 22 -5
47 4 106 37 36 21 43 20 74 -10 17 -17 37 -31 42 -31 24 0 76 -33 84 -54 15
-40 107 -106 148 -106 11 0 25 7 32 15 7 8 20 15 30 15 10 0 23 -7 30 -15 7
-8 21 -15 31 -15 10 0 21 -4 24 -10 3 -5 21 -10 40 -10 19 0 37 5 40 10 12 19
41 10 71 -21 16 -17 52 -42 81 -56 48 -24 54 -25 75 -11 22 14 27 14 65 -7 22
-13 56 -25 75 -27 l33 -3 5 -129 5 -128 22 18 c30 26 73 109 90 174 10 34 16
104 17 185 l1 130 -33 55 c-19 30 -43 71 -54 90 -44 72 -243 285 -314 336
-133 94 -255 154 -377 185 -45 11 -100 27 -122 34 -69 25 -264 39 -638 49 -88
2 -112 0 -127 -13z"/>
<path d="M16780 17445 c0 -9 9 -33 20 -53 11 -20 30 -64 42 -97 19 -54 22 -57
29 -35 12 42 10 77 -6 90 -8 7 -15 20 -15 30 0 9 -16 31 -35 49 -25 22 -35 27
-35 16z"/>
<path d="M5010 17205 c-7 -8 -22 -15 -34 -16 -11 0 -34 -16 -50 -35 -29 -36
-30 -59 -1 -30 9 9 21 16 26 16 6 0 27 12 47 27 20 15 39 29 41 30 3 2 0 8 -6
14 -7 7 -14 5 -23 -6z"/>
<path d="M16881 17174 c0 -11 3 -14 6 -6 3 7 2 16 -1 19 -3 4 -6 -2 -5 -13z"/>
<path d="M16892 16983 c2 -98 -2 -187 -10 -233 -17 -97 -64 -243 -113 -349
-21 -46 -39 -89 -39 -95 0 -6 -16 -31 -35 -55 -19 -24 -35 -50 -35 -58 0 -18
-316 -441 -375 -503 -81 -84 -92 -95 -156 -155 -110 -104 -329 -285 -449 -371
-30 -21 -68 -49 -85 -61 -38 -28 -108 -72 -245 -153 -19 -11 -55 -34 -80 -50
-176 -115 -571 -314 -715 -360 -22 -7 -56 -21 -76 -31 -19 -10 -64 -27 -100
-39 -35 -12 -68 -25 -74 -30 -5 -4 -26 -11 -45 -15 -19 -4 -39 -10 -45 -14
-12 -7 -74 -25 -160 -46 -33 -9 -80 -22 -105 -30 -25 -8 -103 -29 -175 -45
-215 -51 -230 -56 -233 -72 -2 -9 35 -62 82 -118 48 -56 86 -106 86 -112 0 -5
18 -30 39 -56 53 -63 97 -139 216 -367 37 -71 71 -134 75 -140 4 -5 10 -23 14
-38 8 -32 30 -26 49 14 10 20 21 25 62 27 66 4 88 -3 122 -39 32 -35 96 -69
129 -69 43 0 144 73 144 105 0 7 7 18 15 25 11 9 15 33 15 86 0 41 2 74 4 74
3 0 26 -11 52 -25 62 -33 192 -36 251 -5 39 20 138 118 161 157 8 16 12 78 12
202 0 154 2 180 16 185 9 3 51 6 94 6 43 0 82 5 85 10 3 6 19 10 34 10 16 0
34 7 41 15 7 8 20 15 29 15 21 0 81 60 81 82 0 8 7 21 15 28 10 8 15 31 15 71
l0 59 99 0 c75 0 101 4 111 15 7 8 20 15 29 15 9 0 46 29 81 65 47 48 72 65
91 65 15 0 32 7 39 15 7 8 20 15 29 15 10 0 28 11 40 24 13 13 34 27 47 30 15
4 24 14 24 25 0 10 7 24 15 31 8 7 15 21 15 31 0 10 5 21 10 24 6 3 10 21 10
40 0 63 3 65 100 65 69 0 89 3 94 15 3 8 14 15 24 15 10 0 29 11 42 25 13 14
32 25 42 25 10 0 21 8 24 18 3 9 10 25 15 34 5 10 9 23 9 30 0 21 52 58 81 58
15 0 31 5 34 10 3 6 13 10 21 10 8 0 25 11 38 25 12 13 35 29 49 34 17 7 27
18 27 31 0 11 5 20 10 20 6 0 10 8 10 19 0 10 7 24 15 31 11 9 15 34 15 95 l0
82 40 41 c22 22 40 47 40 55 0 8 7 20 15 27 12 10 15 37 15 126 0 103 2 114
18 114 23 0 82 60 82 83 0 10 7 20 15 23 13 5 15 52 15 339 0 283 -2 334 -15
345 -8 7 -15 18 -15 24 0 7 -11 23 -25 36 -25 23 -25 23 -27 244 -3 203 -4
221 -21 224 -17 3 -18 -7 -15 -155z"/>
<path d="M11245 13703 c-15 -16 -97 -108 -182 -205 -86 -98 -160 -178 -165
-178 -5 0 -30 -21 -56 -48 -93 -93 -532 -490 -560 -506 -9 -5 -31 -23 -48 -40
-33 -32 -66 -61 -194 -168 -169 -142 -342 -274 -509 -388 -44 -30 -113 -79
-153 -107 -40 -29 -84 -58 -98 -64 -14 -5 -54 -30 -90 -53 -36 -24 -100 -65
-142 -92 -42 -27 -94 -60 -115 -73 -21 -14 -90 -56 -153 -94 -63 -38 -117 -73
-120 -76 -6 -8 -70 -43 -140 -77 -30 -14 -62 -33 -71 -40 -9 -8 -42 -28 -75
-45 -32 -16 -93 -50 -134 -74 -41 -24 -113 -63 -160 -85 -47 -23 -98 -48 -114
-56 -43 -21 -54 -18 -113 32 -60 51 -77 80 -88 141 -5 35 -3 48 14 72 12 16
21 32 21 35 0 4 8 19 19 34 10 15 35 54 56 87 21 33 51 75 67 93 32 38 29 52
-11 52 -35 0 -140 -52 -175 -86 -27 -28 -56 -79 -56 -99 0 -7 -7 -18 -15 -25
-12 -10 -15 -48 -15 -223 l0 -210 35 -72 c19 -40 48 -83 65 -96 l30 -24 0
-157 c0 -143 2 -161 22 -200 24 -47 73 -98 93 -98 7 0 18 -7 25 -15 7 -8 23
-15 36 -15 12 0 29 7 38 15 8 8 21 15 28 15 19 0 78 58 89 87 8 21 15 23 70
23 50 0 76 7 128 32 79 39 100 58 131 123 34 71 48 85 85 85 18 0 38 7 45 15
7 8 18 15 24 15 7 0 23 11 36 25 13 14 32 25 42 25 10 0 21 8 24 18 3 9 10 24
15 32 5 8 12 22 15 30 3 8 10 23 15 32 5 10 9 42 9 72 0 87 -2 86 110 86 74 0
100 4 110 15 7 8 21 15 31 15 11 0 19 5 19 10 0 6 8 10 18 10 19 0 92 69 92
87 0 6 7 16 15 23 8 7 15 20 15 30 0 36 32 50 117 50 59 0 84 4 93 15 7 8 20
15 30 15 10 0 23 7 30 15 7 8 18 15 26 15 7 0 32 18 54 40 40 39 43 40 109 40
49 0 72 4 81 15 7 8 21 15 31 15 11 0 19 5 19 10 0 6 8 10 18 10 30 0 112 98
112 134 0 7 7 19 15 26 11 9 15 33 15 86 l0 74 34 0 c18 0 39 7 46 15 7 8 21
15 32 15 10 0 21 7 24 15 4 8 14 15 23 15 19 0 67 46 85 82 9 19 21 24 64 26
32 2 71 13 99 28 25 13 58 24 73 24 16 0 30 7 34 15 3 8 14 15 24 15 10 0 29
11 42 25 13 14 31 25 41 25 10 0 21 12 28 30 10 30 11 30 85 30 44 0 76 4 76
10 0 6 8 10 18 10 10 0 31 14 47 30 16 17 36 30 44 30 14 0 51 62 51 84 0 4 7
14 15 22 9 9 15 34 15 60 0 36 3 44 19 44 10 0 24 7 31 15 7 8 20 15 30 15 9
0 25 10 36 21 10 12 29 25 40 29 21 8 54 60 54 85 0 7 7 18 15 25 8 7 15 25
15 41 0 17 5 29 13 29 18 0 37 -21 37 -40 0 -20 61 -80 82 -80 8 0 21 -7 28
-15 7 -9 29 -15 55 -15 26 0 48 -6 55 -15 7 -8 21 -15 30 -15 10 0 20 -3 22
-7 2 -5 18 -16 36 -25 25 -14 58 -18 132 -18 55 0 102 4 105 10 17 27 25 2 25
-75 0 -74 3 -91 25 -125 14 -22 25 -46 25 -53 0 -18 57 -69 105 -92 22 -10 47
-25 55 -31 8 -7 42 -14 75 -16 l60 -3 3 -67 c2 -47 10 -80 27 -113 14 -25 25
-52 25 -59 0 -8 7 -19 15 -26 12 -10 15 -40 15 -150 0 -110 3 -140 15 -150 8
-7 15 -21 15 -31 0 -11 5 -19 10 -19 6 0 10 -8 10 -19 0 -21 72 -91 94 -91 8
0 22 -10 30 -22 13 -19 16 -61 16 -255 0 -135 4 -234 9 -238 9 -5 151 271 151
292 0 5 12 34 28 64 15 30 34 74 41 99 8 25 21 65 29 90 22 66 32 218 17 255
-7 17 -15 62 -19 101 -3 39 -13 88 -21 107 -8 20 -15 48 -15 62 0 14 -4 33
-10 43 -14 26 -61 172 -70 217 -7 38 -128 322 -182 431 -75 148 -160 292 -196
329 -10 11 -39 48 -64 82 -25 34 -67 82 -94 108 -27 25 -67 64 -90 86 -23 21
-44 39 -49 39 -4 0 -24 12 -44 28 -20 15 -44 32 -53 37 -9 6 -43 28 -75 50
-32 22 -85 54 -118 71 -33 17 -108 56 -167 87 -60 32 -117 57 -128 57 -10 0
-31 -12 -45 -27z"/>
<path d="M14306 11918 c-29 -127 -39 -162 -52 -183 -6 -11 -15 -37 -19 -59 -3
-21 -10 -46 -15 -55 -14 -26 -70 -173 -70 -183 0 -6 -8 -22 -18 -36 -15 -23
-27 -50 -71 -167 -11 -27 -69 -152 -92 -196 -10 -20 -19 -42 -19 -48 0 -5 -18
-38 -40 -72 -22 -34 -40 -68 -40 -76 0 -8 -17 -37 -38 -66 -21 -29 -94 -131
-162 -227 -68 -96 -144 -203 -168 -238 -25 -35 -57 -73 -72 -84 -16 -11 -49
-51 -75 -88 -25 -38 -57 -75 -70 -84 -14 -9 -43 -42 -66 -74 -44 -59 -132
-149 -189 -192 -18 -14 -64 -54 -101 -90 -111 -108 -233 -219 -258 -238 -13
-9 -37 -29 -55 -43 -17 -14 -40 -31 -51 -37 -12 -6 -102 -75 -202 -154 -99
-79 -194 -151 -209 -161 -33 -20 -88 -57 -124 -85 -50 -38 -638 -342 -662
-342 -8 0 -75 -31 -150 -70 -75 -38 -143 -70 -151 -70 -8 0 -64 -25 -126 -55
-62 -30 -118 -55 -125 -55 -8 0 -65 -27 -129 -60 -63 -33 -122 -60 -131 -60
-10 0 -61 -22 -114 -49 -53 -27 -110 -53 -127 -57 -16 -4 -51 -17 -77 -30 -26
-13 -78 -33 -115 -45 -37 -11 -88 -29 -113 -39 -25 -9 -60 -22 -77 -29 -85
-29 -101 -35 -138 -50 -22 -9 -43 -15 -48 -13 -4 1 -24 -6 -45 -17 -20 -10
-62 -24 -92 -32 -30 -7 -71 -20 -90 -30 -19 -9 -55 -20 -80 -24 -24 -4 -62
-15 -85 -25 -22 -9 -92 -29 -155 -45 -63 -15 -127 -34 -142 -41 -28 -14 -119
-39 -283 -77 -33 -7 -71 -20 -85 -27 -26 -14 -111 -36 -195 -50 -27 -5 -77
-17 -110 -28 -33 -11 -98 -29 -145 -40 -47 -12 -121 -30 -164 -41 -44 -12 -87
-19 -97 -16 -10 3 -26 2 -36 -3 -57 -30 -288 -62 -483 -68 -69 -2 -195 -6
-280 -9 -184 -7 -173 -7 -280 0 -47 4 -107 6 -134 6 -27 -1 -66 4 -87 9 -24 7
-46 7 -56 2 -12 -6 -37 -5 -73 5 -30 8 -71 12 -92 9 -23 -4 -60 1 -98 13 -46
15 -68 17 -85 9 -16 -7 -40 -4 -94 12 -48 14 -85 19 -109 15 -27 -4 -66 3
-142 28 -80 25 -113 31 -135 25 -24 -6 -74 6 -240 58 -519 162 -588 186 -609
211 -15 16 -57 35 -141 61 -90 28 -122 43 -129 59 -6 13 -29 27 -62 37 -32 10
-58 26 -68 41 -9 14 -21 25 -27 25 -11 0 -224 214 -249 251 -8 12 -27 39 -42
60 -16 21 -28 42 -28 45 0 3 -9 17 -20 31 -11 14 -20 32 -20 40 0 8 -13 31
-29 51 -17 20 -33 49 -37 65 -5 22 -9 25 -20 16 -11 -9 -14 -78 -14 -381 0
-322 -2 -372 -16 -393 -22 -33 -12 -71 21 -79 15 -4 25 -13 25 -25 0 -10 10
-26 21 -37 12 -10 25 -29 29 -40 5 -13 35 -35 73 -53 59 -29 71 -31 169 -31
85 0 107 -3 112 -15 3 -8 14 -15 24 -15 10 0 29 -11 42 -25 13 -14 31 -25 41
-25 10 0 21 -5 24 -10 4 -6 29 -20 56 -32 27 -12 49 -28 49 -35 0 -19 64 -83
82 -83 9 0 21 -7 28 -15 7 -8 20 -15 30 -15 10 0 23 -7 30 -15 17 -21 178 -21
206 0 25 19 68 19 84 0 7 -8 27 -15 46 -15 18 0 36 -4 39 -10 3 -5 19 -10 34
-10 16 0 34 -7 41 -15 7 -8 28 -15 47 -15 21 0 36 -6 39 -15 4 -10 21 -15 54
-15 27 0 52 -4 55 -10 3 -5 24 -10 45 -10 49 0 91 -34 120 -98 12 -26 25 -54
29 -62 5 -8 30 -26 57 -38 27 -13 61 -30 76 -38 37 -20 191 -19 208 1 7 8 20
15 29 15 10 0 28 11 41 25 l24 25 26 -25 c14 -14 30 -25 35 -25 13 0 139 -63
153 -76 6 -7 12 -17 12 -22 0 -19 42 -62 61 -62 10 0 19 -4 19 -10 0 -5 11
-12 25 -16 25 -6 95 -76 95 -94 0 -6 5 -10 10 -10 6 0 10 8 10 18 0 34 78 82
133 82 47 0 155 -58 209 -112 26 -26 51 -48 55 -48 12 0 138 -64 141 -72 2 -4
10 -8 18 -8 8 0 26 -7 39 -16 32 -21 46 -11 33 24 -9 24 -7 34 15 69 26 40 90
83 126 83 20 0 82 -29 92 -43 3 -5 17 -7 30 -5 24 3 24 5 29 133 l5 130 70 3
c39 2 74 7 79 13 13 12 153 12 161 -1 11 -17 193 -12 237 7 21 9 38 20 38 25
0 4 8 8 19 8 10 0 24 7 31 15 8 10 31 15 69 15 31 0 61 4 67 10 10 10 84 -18
84 -32 0 -4 8 -8 18 -8 9 0 26 -7 36 -15 27 -20 189 -21 205 -1 9 11 25 7 88
-25 73 -37 83 -39 170 -39 50 0 95 4 98 10 3 6 27 20 53 31 55 25 112 76 112
100 0 10 3 19 8 21 16 7 42 72 42 107 0 44 33 81 72 81 14 0 32 7 39 16 12 14
14 14 20 -3 4 -10 8 -32 8 -49 1 -18 7 -43 14 -57 22 -43 76 -97 96 -97 10 0
21 -7 25 -15 7 -20 28 -19 84 6 48 22 102 71 102 93 0 6 6 18 13 24 7 8 14 55
17 125 l5 112 97 3 c69 2 99 7 108 17 7 8 18 15 25 15 37 0 135 75 135 103 0
8 7 20 15 27 8 7 15 17 15 23 0 25 36 87 51 87 9 0 22 7 29 15 7 8 21 15 31
15 10 0 21 5 24 10 3 6 19 10 34 10 16 0 34 7 41 15 9 11 35 15 105 15 79 0
98 3 136 25 24 13 54 29 66 34 27 12 62 50 74 79 6 16 17 22 38 22 15 0 34 7
41 15 7 8 20 15 29 15 9 0 22 5 29 12 9 9 15 9 24 0 7 -7 20 -12 29 -12 9 0
22 -7 29 -15 9 -11 35 -15 105 -15 70 0 96 4 105 15 7 8 20 15 30 15 10 0 23
7 30 15 7 8 21 15 30 15 10 0 20 6 23 13 4 10 7 10 18 0 8 -9 46 -13 109 -13
101 0 147 13 181 51 9 10 28 23 42 28 17 7 27 18 27 31 0 19 6 20 99 20 75 0
101 4 111 15 7 8 20 15 29 15 21 0 127 107 136 138 3 12 11 22 16 22 5 0 9 56
9 129 0 128 0 130 26 150 15 12 32 21 39 21 6 0 22 11 35 25 13 14 32 25 42
25 10 0 18 4 18 10 0 5 11 12 24 16 13 3 34 17 47 30 12 13 30 24 40 24 9 0
22 7 29 15 7 8 18 15 25 15 7 0 24 11 39 25 15 14 33 25 40 25 7 0 23 11 36
25 13 14 29 25 36 25 7 0 29 14 47 30 19 16 42 30 50 30 9 0 24 11 35 25 11
14 26 25 34 25 8 0 23 9 34 21 27 30 96 61 108 49 5 -5 51 -10 101 -10 97 0
151 17 189 59 11 12 27 21 38 21 11 0 18 7 18 19 0 10 7 24 15 31 8 7 15 20
15 30 0 10 7 23 15 30 10 8 15 31 15 67 0 45 4 58 23 74 12 10 27 18 33 19 6
0 21 11 34 25 13 14 31 25 40 25 11 0 25 20 40 55 13 30 27 55 32 55 4 0 8 15
8 33 0 25 9 42 40 72 22 21 40 47 40 56 0 9 7 22 15 29 8 7 15 18 15 24 0 7
10 22 23 34 20 19 35 22 114 22 97 0 132 11 173 55 13 14 31 25 39 25 10 0 29
27 48 68 l33 67 2 200 3 200 45 3 c25 2 49 7 55 13 5 5 16 9 25 9 9 0 29 14
45 30 16 17 37 30 47 30 11 0 18 7 18 18 0 11 9 27 21 38 11 10 29 37 40 58
17 35 19 64 19 246 0 166 3 210 15 226 8 10 15 25 15 32 0 7 7 20 15 28 13 13
15 74 15 422 0 391 -4 482 -20 482 -4 0 -15 -33 -24 -72z"/>
<path d="M430 6453 c1 -38 5 -51 23 -64 l23 -17 -6 52 c-3 28 -9 57 -13 64
-16 25 -27 11 -27 -35z"/>
<path d="M3343 1408 c2 -7 10 -13 17 -13 7 0 15 6 18 13 2 7 -5 12 -18 12 -13
0 -20 -5 -17 -12z"/>
</g>
</svg>
