<?xml version="1.0" standalone="no"?>
<!DOCTYPE svg PUBLIC "-//W3C//DTD SVG 20010904//EN"
 "http://www.w3.org/TR/2001/REC-SVG-20010904/DTD/svg10.dtd">
<svg version="1.0" xmlns="http://www.w3.org/2000/svg"
 width="1280.000000pt" height="1280.000000pt" viewBox="0 0 1280.000000 1280.000000"
 preserveAspectRatio="xMidYMid meet">

<g transform="translate(0.000000,1280.000000) scale(0.100000,-0.100000)"
fill="#000000" stroke="none">
<path d="M10450 11920 c-41 -4 -106 -15 -143 -24 -37 -9 -72 -14 -77 -11 -13
8 -172 -21 -313 -56 -522 -131 -1042 -415 -1482 -810 -165 -148 -440 -445
-545 -589 l-18 -24 -114 27 c-265 62 -639 92 -1043 84 -457 -10 -574 -27
-1112 -163 -205 -52 -380 -94 -388 -94 -9 0 -55 26 -103 58 -182 123 -394 241
-655 367 -255 122 -324 151 -517 215 -442 148 -892 229 -1528 275 -117 9 -249
22 -295 30 -45 8 -135 15 -200 15 -169 0 -213 -25 -281 -157 -24 -49 -25 -58
-22 -180 5 -188 33 -307 168 -733 111 -349 161 -469 408 -975 147 -300 436
-694 714 -970 159 -158 234 -218 477 -381 269 -180 301 -205 457 -359 198
-192 297 -331 366 -510 19 -49 50 -125 70 -167 36 -78 57 -142 165 -503 100
-335 113 -401 131 -650 12 -167 12 -484 1 -575 -5 -36 -14 -119 -20 -185 -7
-66 -19 -169 -28 -230 -21 -150 -29 -522 -14 -671 7 -66 27 -189 45 -274 19
-85 34 -166 34 -180 0 -14 13 -79 30 -145 23 -89 49 -155 99 -255 62 -124 75
-143 168 -239 141 -145 275 -253 520 -418 183 -123 470 -213 739 -233 394 -28
802 2 1145 85 172 42 251 73 437 170 325 170 462 260 687 452 211 181 270 246
338 373 109 206 146 366 136 592 -4 102 -11 144 -42 248 -41 139 -87 253 -137
338 -44 75 -228 264 -363 374 -147 120 -480 340 -638 423 l-129 68 114 59 c62
33 141 80 175 104 221 157 398 404 479 669 27 86 28 99 28 295 0 194 -2 210
-27 295 -114 375 -368 636 -852 875 -173 86 -286 127 -453 167 -206 48 -625
41 -919 -16 -91 -17 -91 -17 -101 3 -21 45 -180 254 -246 324 -81 85 -155 139
-259 187 -89 42 -148 52 -169 31 -9 -8 -18 -13 -20 -10 -10 9 -90 -89 -110
-134 -29 -64 -34 -155 -14 -223 9 -30 40 -100 69 -155 271 -529 339 -681 430
-974 147 -471 239 -903 292 -1380 27 -236 41 -680 27 -843 -17 -192 -17 -193
-46 -349 -55 -291 -56 -403 -8 -556 13 -44 23 -58 57 -77 22 -13 62 -29 88
-36 59 -14 62 -12 162 123 87 116 192 288 245 401 77 163 160 526 160 697 0
61 4 100 10 100 21 0 249 -51 335 -76 231 -65 409 -153 685 -337 231 -155 403
-305 444 -386 70 -137 99 -312 65 -393 -15 -37 -59 -112 -105 -178 -97 -139
-366 -329 -709 -501 -201 -100 -292 -124 -630 -166 -164 -20 -491 -22 -633 -4
-100 12 -257 58 -334 97 -42 21 -175 114 -323 225 -27 20 -77 64 -109 97 -75
77 -89 119 -160 472 -13 69 -33 163 -43 210 -14 68 -18 124 -16 285 1 110 7
229 12 265 6 36 15 133 21 215 5 83 17 199 26 259 14 91 16 161 11 435 -8 477
-21 564 -147 981 -37 124 -84 281 -104 350 -38 126 -107 297 -154 380 -180
317 -358 551 -550 724 -123 110 -288 240 -340 267 -31 16 -105 71 -276 208
-143 113 -319 287 -407 401 -196 254 -360 494 -448 659 -32 58 -69 124 -83
147 -115 181 -285 606 -338 842 -21 94 -22 104 -8 119 10 10 21 12 30 7 7 -5
27 -10 43 -11 61 -4 425 -53 582 -78 277 -43 493 -95 720 -171 283 -96 753
-334 1063 -539 256 -169 319 -189 461 -146 193 58 786 204 934 230 311 53 749
62 1085 22 107 -13 213 -25 235 -27 140 -13 404 -66 530 -105 l90 -28 29 27
c16 15 53 63 82 107 113 170 224 311 375 480 132 147 167 181 294 287 327 272
690 473 1054 584 107 33 459 99 469 89 9 -8 62 -291 78 -410 37 -278 -11 -890
-92 -1170 -54 -186 -167 -442 -252 -572 -91 -139 -221 -313 -375 -501 -153
-187 -204 -284 -312 -588 -82 -231 -119 -413 -151 -728 -36 -365 0 -671 121
-1026 20 -58 45 -148 56 -200 11 -52 31 -132 44 -176 14 -45 25 -91 25 -102 0
-12 16 -85 35 -164 70 -282 134 -995 122 -1353 -6 -190 -35 -351 -102 -570
-102 -336 -216 -555 -443 -846 -177 -229 -430 -495 -564 -595 -271 -202 -551
-340 -808 -398 -253 -58 -735 -116 -1125 -137 -363 -19 -463 -8 -792 85 -439
125 -534 158 -661 226 -115 62 -417 256 -497 319 -117 92 -395 362 -439 426
-221 324 -356 721 -397 1173 -19 214 12 533 85 859 58 256 64 297 76 485 14
207 1 389 -41 573 -72 319 -150 548 -245 718 -153 273 -279 464 -371 562 -79
83 -206 172 -348 241 -312 152 -489 163 -985 62 -130 -26 -227 -74 -424 -208
-99 -67 -289 -265 -367 -380 -142 -213 -248 -461 -300 -700 -32 -151 -32 -428
0 -580 31 -147 74 -268 137 -387 163 -309 259 -398 429 -398 67 0 89 4 136 28
105 51 176 153 186 267 8 84 -12 149 -73 242 -71 107 -140 247 -159 323 -26
96 -30 265 -11 368 45 238 194 510 357 654 204 179 286 217 469 216 233 -1
466 -115 575 -279 125 -187 254 -492 320 -752 90 -358 89 -514 -10 -952 -64
-283 -95 -556 -95 -835 0 -538 176 -1148 458 -1585 84 -130 155 -211 333 -381
318 -302 326 -308 682 -533 304 -192 409 -235 958 -391 420 -120 494 -130 878
-122 412 9 579 22 979 78 362 51 568 99 781 184 227 90 586 305 771 462 262
222 656 675 842 968 192 301 350 725 435 1170 21 109 29 554 14 800 -16 260
-49 629 -67 750 -8 55 -32 177 -54 270 -68 286 -88 377 -104 465 -9 47 -36
141 -61 210 -49 134 -98 339 -116 483 -13 99 -3 257 32 500 25 176 39 236 89
380 69 202 111 288 186 382 38 47 93 116 122 153 347 436 510 729 637 1148 86
285 124 581 132 1030 6 332 0 419 -42 644 -55 292 -135 589 -180 665 -43 73
-72 92 -155 104 -115 15 -277 20 -360 11z m-3554 -4744 c209 -42 549 -219 684
-357 112 -113 166 -270 141 -411 -23 -132 -123 -284 -234 -357 -169 -109 -356
-172 -677 -229 -192 -34 -189 -34 -195 -9 -2 12 -18 106 -35 209 -50 300 -117
578 -232 965 -29 95 -50 175 -47 177 2 3 65 12 139 20 154 17 347 14 456 -8z"/>
<path d="M9873 10650 c-485 -143 -949 -496 -1231 -940 -32 -48 -74 -113 -95
-143 -27 -38 -37 -61 -33 -75 4 -11 54 -55 112 -97 243 -179 370 -337 485
-604 67 -155 86 -185 120 -189 39 -4 79 28 204 164 192 209 321 398 454 668
148 300 236 653 248 993 l6 161 -51 51 c-28 28 -59 51 -69 50 -10 0 -77 -18
-150 -39z"/>
<path d="M2885 10135 c-14 -13 -25 -30 -25 -37 0 -29 90 -249 155 -378 81
-163 192 -348 260 -436 28 -35 91 -117 142 -181 116 -150 301 -351 390 -425
228 -192 412 -320 464 -324 15 -1 33 -5 39 -9 6 -4 22 0 35 9 17 11 32 43 55
118 79 255 173 390 390 561 30 24 69 62 87 85 l32 42 -25 38 c-31 46 -57 67
-158 126 -43 26 -132 87 -196 136 -65 49 -149 109 -186 133 -94 60 -292 159
-427 212 -62 24 -166 66 -232 93 -66 27 -255 92 -420 146 -165 53 -310 101
-323 107 -31 12 -29 12 -57 -16z"/>
</g>
</svg>
